<svg width="18" height="18" viewBox="0 0 18 18" fill="none" xmlns="http://www.w3.org/2000/svg">
<path d="M9.69 1.69745L14.5725 4.32995C15.1425 4.63745 15.1425 5.51495 14.5725 5.82245L9.69 8.45495C9.255 8.68745 8.745 8.68745 8.31 8.45495L3.4275 5.82245C2.8575 5.51495 2.8575 4.63745 3.4275 4.32995L8.31 1.69745C8.745 1.46495 9.255 1.46495 9.69 1.69745Z" stroke="#BCC1C6" stroke-width="1.5" stroke-linecap="round" stroke-linejoin="round"/>
<path d="M2.7075 7.59995L7.245 9.87245C7.8075 10.1574 8.1675 10.7349 8.1675 11.3649V15.6549C8.1675 16.2774 7.515 16.6749 6.96 16.3974L2.4225 14.1249C1.86 13.8399 1.5 13.2624 1.5 12.6324V8.34245C1.5 7.71995 2.1525 7.32245 2.7075 7.59995Z" stroke="#BCC1C6" stroke-width="1.5" stroke-linecap="round" stroke-linejoin="round"/>
<path d="M15.2925 7.59995L10.755 9.87245C10.1925 10.1574 9.83252 10.7349 9.83252 11.3649V15.6549C9.83252 16.2774 10.485 16.6749 11.04 16.3974L15.5775 14.1249C16.14 13.8399 16.5 13.2624 16.5 12.6324V8.34245C16.5 7.71995 15.8475 7.32245 15.2925 7.59995Z" stroke="#BCC1C6" stroke-width="1.5" stroke-linecap="round" stroke-linejoin="round"/>
</svg>
