<svg width="18" height="19" viewBox="0 0 18 19" fill="none" xmlns="http://www.w3.org/2000/svg">
<path d="M13.5 16.0625H4.5C2.6865 16.0625 1.6875 15.0635 1.6875 13.25V6.5C1.6875 4.6865 2.6865 3.6875 4.5 3.6875H13.5C15.3135 3.6875 16.3125 4.6865 16.3125 6.5V13.25C16.3125 15.0635 15.3135 16.0625 13.5 16.0625ZM4.5 4.8125C3.31725 4.8125 2.8125 5.31725 2.8125 6.5V13.25C2.8125 14.4327 3.31725 14.9375 4.5 14.9375H13.5C14.6827 14.9375 15.1875 14.4327 15.1875 13.25V6.5C15.1875 5.31725 14.6827 4.8125 13.5 4.8125H4.5ZM9.77179 10.3843L13.4557 7.70525C13.7069 7.523 13.7625 7.1705 13.5795 6.91925C13.3972 6.66875 13.0463 6.61175 12.7936 6.7955L9.1095 9.4745C9.0435 9.5225 8.95577 9.5225 8.88977 9.4745L5.20569 6.7955C4.95219 6.61175 4.60205 6.6695 4.4198 6.91925C4.2368 7.1705 4.29233 7.52225 4.54358 7.70525L8.22748 10.385C8.45848 10.553 8.72927 10.6362 8.99927 10.6362C9.26927 10.6362 9.54154 10.5523 9.77179 10.3843Z" fill="#333333"/>
</svg>
