<svg width="18" height="19" viewBox="0 0 18 19" fill="none" xmlns="http://www.w3.org/2000/svg">
<path d="M15.9217 10.901C14.9347 12.548 12.7199 15.3125 8.99995 15.3125C8.2777 15.3125 7.5645 15.203 6.8805 14.9862C6.58425 14.8925 6.42072 14.5768 6.51447 14.2805C6.60747 13.9835 6.92616 13.8215 7.22016 13.9138C7.79391 14.0953 8.39245 14.1875 8.99995 14.1875C12.1664 14.1875 14.0925 11.765 14.958 10.3205C15.264 9.81351 15.264 9.18575 14.9595 8.68025C14.7 8.243 14.3827 7.79598 14.0399 7.38423C13.8412 7.14498 13.8743 6.7903 14.1135 6.5923C14.3535 6.39355 14.7074 6.4265 14.9062 6.665C15.2857 7.12175 15.6381 7.61899 15.9246 8.10274C16.4444 8.96299 16.4444 10.037 15.9217 10.901ZM7.54719 11.7486L2.64747 16.6483C2.53797 16.7578 2.39395 16.8132 2.24995 16.8132C2.10595 16.8132 1.96192 16.7585 1.85242 16.6483C1.63267 16.4285 1.63267 16.0722 1.85242 15.8525L4.23371 13.4712C3.23771 12.6125 2.51398 11.6277 2.07673 10.8995C1.55623 10.037 1.55619 8.96306 2.07819 8.09981C3.06519 6.45281 5.27995 3.68825 8.99995 3.68825C10.3762 3.68825 11.6737 4.07745 12.8662 4.8387L15.3517 2.35323C15.5714 2.13348 15.9277 2.13348 16.1475 2.35323C16.3672 2.57298 16.3672 2.92925 16.1475 3.149L7.54865 11.7478C7.54865 11.7478 7.54867 11.7486 7.54792 11.7486C7.54717 11.7486 7.54719 11.7478 7.54719 11.7486ZM7.20661 10.4983L9.99824 7.70668C9.69674 7.53643 9.35845 7.43825 8.99995 7.43825C7.86295 7.43825 6.93818 8.363 6.93818 9.50075C6.93818 9.8585 7.03711 10.1968 7.20661 10.4983ZM5.03022 12.674L6.38923 11.315C6.01798 10.7877 5.81318 10.1615 5.81318 9.49929C5.81318 7.74204 7.2427 6.31179 8.99995 6.31179C9.66295 6.31179 10.2884 6.51658 10.8156 6.88784L12.0389 5.66451C11.0902 5.10876 10.0739 4.81105 8.99995 4.81105C5.83345 4.81105 3.90738 7.23356 3.04188 8.67806C2.73588 9.18506 2.73591 9.81282 3.04041 10.3183C3.44316 10.9911 4.11222 11.9007 5.03022 12.674ZM11.031 9.82631C10.896 10.6963 10.1955 11.3975 9.32697 11.5318C9.02022 11.579 8.80951 11.8662 8.85676 12.173C8.90026 12.4512 9.1395 12.65 9.41175 12.65C9.44025 12.65 9.46949 12.6477 9.49799 12.6432C10.8682 12.4317 11.9309 11.3691 12.1424 9.99806C12.1897 9.69056 11.9797 9.4041 11.6722 9.3561C11.3722 9.31035 11.0782 9.51881 11.031 9.82631Z" fill="#BCC1C6"/>
</svg>
