<svg width="18" height="19" viewBox="0 0 18 19" fill="none" xmlns="http://www.w3.org/2000/svg">
<path d="M12.375 7.04047V6.0625C12.375 4.09825 10.7768 2.5 8.8125 2.5C6.84825 2.5 5.25 4.09825 5.25 6.0625V7.04047C3.7965 7.23322 3 8.197 3 9.8125V14.3125C3 16.126 3.999 17.125 5.8125 17.125H11.8125C13.626 17.125 14.625 16.126 14.625 14.3125V9.8125C14.625 8.19775 13.8285 7.23397 12.375 7.04047ZM8.8125 3.625C10.1565 3.625 11.25 4.7185 11.25 6.0625V7H6.375V6.0625C6.375 4.7185 7.4685 3.625 8.8125 3.625ZM13.5 14.3125C13.5 15.4952 12.9952 16 11.8125 16H5.8125C4.62975 16 4.125 15.4952 4.125 14.3125V9.8125C4.125 8.62975 4.62975 8.125 5.8125 8.125H11.8125C12.9952 8.125 13.5 8.62975 13.5 9.8125V14.3125ZM9.76501 11.3125C9.76501 11.6215 9.606 11.8825 9.375 12.0528V13.5625C9.375 13.873 9.123 14.125 8.8125 14.125C8.502 14.125 8.25 13.873 8.25 13.5625V12.0339C8.034 11.8622 7.88617 11.6088 7.88617 11.3125C7.88617 10.795 8.30251 10.375 8.82001 10.375H8.82751C9.34501 10.375 9.76501 10.795 9.76501 11.3125Z" fill="#BCC1C6"/>
</svg>
