<svg width="18" height="18" viewBox="0 0 18 18" fill="none" xmlns="http://www.w3.org/2000/svg">
<path d="M9 2.00244C9.21925 2.00244 9.42336 2.01035 9.62109 2.03369L9.63672 2.03564C12.8357 2.31149 15.4422 4.77852 15.9209 7.95361L15.9609 8.26318V8.26611C15.9847 8.51044 16 8.75805 16 9.00244C16 10.6936 15.3914 12.3203 14.2881 13.5835L14.2861 13.5864C12.962 15.1209 11.0339 16.0024 9 16.0024C8.75547 16.0024 8.50716 15.9871 8.2627 15.9634C5.2632 15.6435 2.81614 13.4592 2.16309 10.5259C2.0556 10.0383 2 9.52563 2 9.00244C2 6.33338 3.55297 3.86005 5.9541 2.70068C5.96075 2.69771 5.96638 2.695 5.9707 2.69287C5.97217 2.69215 5.97329 2.69061 5.97461 2.68994C6.65782 2.36163 7.3781 2.15405 8.12402 2.06104C8.41755 2.02443 8.70874 2.00244 9 2.00244ZM9.13379 12.2134C8.71966 13.079 8.5 14.0271 8.5 15.0024V15.5024H9C10.3915 15.5024 11.7278 15.0548 12.8281 14.2505L13.6475 13.6519L12.6738 13.3667C11.6734 13.074 10.7282 12.6191 9.87109 12.02L9.38867 11.6821L9.13379 12.2134ZM6.85059 9.58643C5.83033 10.2656 4.63689 10.664 3.39746 10.7349L2.7041 10.7739L2.96191 11.4194C3.73065 13.3435 5.37844 14.7818 7.39062 15.2944L7.99805 15.4497L8.01367 14.8228C8.04178 13.7237 8.33123 12.6634 8.84961 11.7036L9.03125 11.3667L8.75391 11.103C8.29981 10.6717 7.88919 10.2088 7.53418 9.71143L7.25293 9.31787L6.85059 9.58643ZM15 8.50244C13.0538 8.50244 11.2419 9.36412 10.0176 10.8354L9.67188 11.2505L10.1123 11.563C11.1803 12.3209 12.3942 12.8557 13.6953 13.1001L13.999 13.1577L14.1836 12.9146C14.1844 12.9135 14.1855 12.9123 14.1885 12.9087C14.1928 12.9034 14.2035 12.8881 14.2158 12.8716C14.4002 12.6244 14.5633 12.3668 14.707 12.103V12.1021C14.7291 12.0614 14.7563 12.0118 14.7822 11.9614V11.9604C14.9192 11.6933 15.038 11.417 15.1367 11.1323C15.1547 11.0804 15.1734 11.0207 15.1846 10.9858V10.9849C15.2769 10.6966 15.3541 10.3981 15.4062 10.0903C15.4111 10.0615 15.4139 10.0343 15.416 10.0171C15.4184 9.99762 15.4197 9.98907 15.4209 9.98096C15.4689 9.6648 15.5 9.33765 15.5 9.00244V8.50244H15ZM9.97168 3.22705C9.98599 3.42459 10 3.58636 10 3.75244C10 5.62459 9.25386 7.38896 7.94141 8.69189L7.64258 8.98779L7.88281 9.33252C8.18293 9.76355 8.52021 10.1701 8.89453 10.5474L9.28223 10.938L9.63379 10.5151C10.9119 8.97774 12.7897 8.06562 14.8213 8.01416L15.4482 7.99854L15.293 7.39014C14.705 5.08974 12.8926 3.28525 10.5918 2.70654L9.92188 2.5376L9.97168 3.22705ZM4.94336 3.94482C3.43456 5.16086 2.5 7.01379 2.5 9.00244C2.5 9.13295 2.50394 9.26228 2.51172 9.39014L2.5459 9.77002C2.5475 9.78398 2.54931 9.79633 2.55078 9.80518C2.55223 9.8138 2.55314 9.82164 2.55371 9.82471L2.55469 9.82666L2.60645 10.2554L3.05273 10.2524C4.33657 10.242 5.58209 9.84716 6.62988 9.13428L6.99414 8.88623L6.79395 8.49365C6.1398 7.21126 5.78638 5.78475 5.75684 4.32373L5.73633 3.30518L4.94336 3.94482ZM8.95215 2.50537C8.8061 2.50643 8.65723 2.51927 8.54688 2.52686C8.51643 2.52894 8.3824 2.53391 8.30176 2.54248H8.30078C8.23423 2.54963 8.13258 2.56592 8.10449 2.56982C8.00681 2.58329 7.91028 2.60133 7.83105 2.61572L7.63672 2.6499L7.40332 2.70654C7.29959 2.73292 7.19887 2.76414 7.1123 2.79053H7.11133C7.09922 2.79422 7.08732 2.79781 7.06445 2.8042C7.04421 2.80985 7.01508 2.81759 6.98438 2.82764L6.74512 2.91064C6.70887 2.92413 6.67558 2.93832 6.65137 2.94873C6.62403 2.96049 6.60896 2.96761 6.59277 2.97412L6.30469 3.08936L6.28027 3.39893C6.26021 3.65534 6.25 3.89369 6.25 4.12744C6.25 5.43457 6.53693 6.71166 7.06543 7.88135L7.38574 8.59033L7.89746 8.00439C8.92087 6.83404 9.5 5.33619 9.5 3.75244C9.5 3.48057 9.48459 3.20945 9.45215 2.94385L9.39746 2.50146L8.95215 2.50537ZM5.57227 2.45264C5.71086 2.63221 5.90233 2.71132 5.91797 2.71338C5.90977 2.71617 5.89491 2.72223 5.88184 2.72607C5.73054 2.65209 5.63326 2.5555 5.57227 2.45264ZM5.9668 2.69189C5.96546 2.69261 5.96412 2.6932 5.96289 2.69385L5.95996 2.68799C5.96074 2.68642 5.96203 2.685 5.96289 2.68311L5.9668 2.69189ZM5.97266 2.69189C5.97124 2.69261 5.96948 2.69301 5.96777 2.69385C5.9704 2.69258 5.97296 2.6912 5.97559 2.68994C5.97468 2.69041 5.97363 2.6914 5.97266 2.69189ZM6.00781 2.67236C6.0007 2.67664 5.98859 2.68343 5.97363 2.69092L5.97266 2.68994C5.98633 2.6831 5.99764 2.67765 6.00488 2.67334C6.00697 2.6721 6.00912 2.67141 6.01074 2.67041C6.00997 2.67088 6.00868 2.67184 6.00781 2.67236ZM5.98926 2.1333C6.05977 2.26413 6.09687 2.43358 6.0459 2.64697C6.02058 2.66369 5.99128 2.67736 5.97168 2.68799L5.96582 2.67627C5.99622 2.60343 6.05883 2.36999 5.97461 2.14014C5.97954 2.13796 5.98433 2.13547 5.98926 2.1333Z" fill="black" stroke="#BCC1C6"/>
</svg>
